<mxfile host="app.diagrams.net" agent="Mozilla/5.0 (Macintosh; Intel Mac OS X 10_15_7) AppleWebKit/537.36 (KHTML, like Gecko) Chrome/131.0.0.0 Safari/537.36" version="25.0.1">
  <diagram name="Page-1" id="tJsOqeit9DZSYHsZK7fn">
    <mxGraphModel dx="1967" dy="657" grid="1" gridSize="10" guides="1" tooltips="1" connect="1" arrows="1" fold="1" page="1" pageScale="1" pageWidth="827" pageHeight="1169" math="0" shadow="0">
      <root>
        <mxCell id="0" />
        <mxCell id="1" parent="0" />
        <mxCell id="Ln_kKYinRdLxvM4SbcaW-1" value="" style="rounded=1;whiteSpace=wrap;html=1;" vertex="1" parent="1">
          <mxGeometry x="-60" y="240" width="990" height="480" as="geometry" />
        </mxCell>
        <mxCell id="Ln_kKYinRdLxvM4SbcaW-4" value="" style="rounded=1;whiteSpace=wrap;html=1;glass=0;" vertex="1" parent="1">
          <mxGeometry x="-40" y="260" width="360" height="440" as="geometry" />
        </mxCell>
        <mxCell id="Ln_kKYinRdLxvM4SbcaW-6" value="" style="rounded=1;whiteSpace=wrap;html=1;glass=0;" vertex="1" parent="1">
          <mxGeometry x="340" y="420" width="270" height="280" as="geometry" />
        </mxCell>
        <mxCell id="Ln_kKYinRdLxvM4SbcaW-7" value="" style="shape=image;verticalLabelPosition=bottom;labelBackgroundColor=default;verticalAlign=top;aspect=fixed;imageAspect=0;image=https://github.com/kubernetes/community/blob/master/icons/png/infrastructure_components/labeled/control-plane-128.png?raw=true;" vertex="1" parent="1">
          <mxGeometry x="-15" y="280" width="50" height="48.79" as="geometry" />
        </mxCell>
        <mxCell id="Ln_kKYinRdLxvM4SbcaW-8" value="" style="rounded=1;whiteSpace=wrap;html=1;glass=0;" vertex="1" parent="1">
          <mxGeometry x="635" y="420" width="270" height="280" as="geometry" />
        </mxCell>
        <mxCell id="Ln_kKYinRdLxvM4SbcaW-9" value="" style="shape=image;verticalLabelPosition=bottom;labelBackgroundColor=default;verticalAlign=top;aspect=fixed;imageAspect=0;image=https://github.com/kubernetes/community/blob/master/icons/png/infrastructure_components/labeled/node-128.png?raw=true;" vertex="1" parent="1">
          <mxGeometry x="550" y="425.58000000000004" width="50" height="48.83" as="geometry" />
        </mxCell>
        <mxCell id="Ln_kKYinRdLxvM4SbcaW-10" value="" style="shape=image;verticalLabelPosition=bottom;labelBackgroundColor=default;verticalAlign=top;aspect=fixed;imageAspect=0;image=https://github.com/kubernetes/community/blob/master/icons/png/infrastructure_components/labeled/node-128.png?raw=true;" vertex="1" parent="1">
          <mxGeometry x="840" y="425.58000000000004" width="50" height="48.83" as="geometry" />
        </mxCell>
        <mxCell id="Ln_kKYinRdLxvM4SbcaW-26" value="" style="group" vertex="1" connectable="0" parent="1">
          <mxGeometry x="350" y="480" width="120" height="60.00000000000006" as="geometry" />
        </mxCell>
        <mxCell id="Ln_kKYinRdLxvM4SbcaW-11" value="&amp;nbsp;kubelet" style="rounded=1;whiteSpace=wrap;html=1;fillColor=#dae8fc;strokeColor=none;align=left;" vertex="1" parent="Ln_kKYinRdLxvM4SbcaW-26">
          <mxGeometry width="120" height="60" as="geometry" />
        </mxCell>
        <mxCell id="Ln_kKYinRdLxvM4SbcaW-12" value="" style="shape=image;verticalLabelPosition=bottom;labelBackgroundColor=default;verticalAlign=top;aspect=fixed;imageAspect=0;image=https://github.com/kubernetes/community/blob/master/icons/png/control_plane_components/labeled/kubelet-128.png?raw=true;" vertex="1" parent="Ln_kKYinRdLxvM4SbcaW-26">
          <mxGeometry x="68" y="5.589999999999975" width="50" height="48.83" as="geometry" />
        </mxCell>
        <mxCell id="Ln_kKYinRdLxvM4SbcaW-30" value="" style="group" vertex="1" connectable="0" parent="1">
          <mxGeometry x="646" y="480" width="120" height="60.00000000000006" as="geometry" />
        </mxCell>
        <mxCell id="Ln_kKYinRdLxvM4SbcaW-31" value="&amp;nbsp;kubelet" style="rounded=1;whiteSpace=wrap;html=1;fillColor=#dae8fc;strokeColor=none;align=left;" vertex="1" parent="Ln_kKYinRdLxvM4SbcaW-30">
          <mxGeometry width="120" height="60" as="geometry" />
        </mxCell>
        <mxCell id="Ln_kKYinRdLxvM4SbcaW-32" value="" style="shape=image;verticalLabelPosition=bottom;labelBackgroundColor=default;verticalAlign=top;aspect=fixed;imageAspect=0;image=https://github.com/kubernetes/community/blob/master/icons/png/control_plane_components/labeled/kubelet-128.png?raw=true;" vertex="1" parent="Ln_kKYinRdLxvM4SbcaW-30">
          <mxGeometry x="68" y="5.589999999999975" width="50" height="48.83" as="geometry" />
        </mxCell>
        <mxCell id="Ln_kKYinRdLxvM4SbcaW-34" value="" style="group" vertex="1" connectable="0" parent="1">
          <mxGeometry x="-60" y="420" width="120" height="60.00000000000006" as="geometry" />
        </mxCell>
        <mxCell id="Ln_kKYinRdLxvM4SbcaW-35" value="etcd" style="rounded=1;whiteSpace=wrap;html=1;fillColor=#dae8fc;strokeColor=none;align=left;" vertex="1" parent="Ln_kKYinRdLxvM4SbcaW-34">
          <mxGeometry x="30" width="90" height="60" as="geometry" />
        </mxCell>
        <mxCell id="Ln_kKYinRdLxvM4SbcaW-33" value="" style="shape=image;verticalLabelPosition=bottom;labelBackgroundColor=default;verticalAlign=top;aspect=fixed;imageAspect=0;image=https://github.com/kubernetes/community/raw/master/icons/png/infrastructure_components/labeled/etcd-128.png;" vertex="1" parent="Ln_kKYinRdLxvM4SbcaW-34">
          <mxGeometry x="67" y="5.590000000000032" width="50" height="48.83" as="geometry" />
        </mxCell>
        <mxCell id="Ln_kKYinRdLxvM4SbcaW-37" value="" style="group" vertex="1" connectable="0" parent="1">
          <mxGeometry x="110" y="420" width="160" height="60" as="geometry" />
        </mxCell>
        <mxCell id="Ln_kKYinRdLxvM4SbcaW-38" value="kube-api-&lt;span style=&quot;background-color: initial;&quot;&gt;server&lt;/span&gt;" style="rounded=1;whiteSpace=wrap;html=1;fillColor=#dae8fc;strokeColor=none;align=left;" vertex="1" parent="Ln_kKYinRdLxvM4SbcaW-37">
          <mxGeometry x="10" width="150" height="60" as="geometry" />
        </mxCell>
        <mxCell id="Ln_kKYinRdLxvM4SbcaW-39" value="" style="shape=image;verticalLabelPosition=bottom;labelBackgroundColor=default;verticalAlign=top;aspect=fixed;imageAspect=0;image=https://github.com/kubernetes/community/raw/master/icons/png/infrastructure_components/labeled/etcd-128.png;" vertex="1" parent="Ln_kKYinRdLxvM4SbcaW-37">
          <mxGeometry x="108.00333333333333" y="5.590000000000032" width="49.99999999999995" height="48.82999999999995" as="geometry" />
        </mxCell>
        <mxCell id="Ln_kKYinRdLxvM4SbcaW-41" value="" style="group" vertex="1" connectable="0" parent="1">
          <mxGeometry x="-28" y="600" width="120" height="60.00000000000006" as="geometry" />
        </mxCell>
        <mxCell id="Ln_kKYinRdLxvM4SbcaW-42" value="scheduler" style="rounded=1;whiteSpace=wrap;html=1;fillColor=#dae8fc;strokeColor=none;align=left;" vertex="1" parent="Ln_kKYinRdLxvM4SbcaW-41">
          <mxGeometry width="120" height="60" as="geometry" />
        </mxCell>
        <mxCell id="Ln_kKYinRdLxvM4SbcaW-44" value="" style="shape=image;verticalLabelPosition=bottom;labelBackgroundColor=default;verticalAlign=top;aspect=fixed;imageAspect=0;image=https://github.com/kubernetes/community/raw/master/icons/png/control_plane_components/labeled/sched-128.png;" vertex="1" parent="Ln_kKYinRdLxvM4SbcaW-41">
          <mxGeometry x="68" y="5.590000000000032" width="50" height="48.83" as="geometry" />
        </mxCell>
        <mxCell id="Ln_kKYinRdLxvM4SbcaW-46" value="" style="group" vertex="1" connectable="0" parent="1">
          <mxGeometry x="88" y="600" width="220" height="60" as="geometry" />
        </mxCell>
        <mxCell id="Ln_kKYinRdLxvM4SbcaW-47" value="kube-controller-manager" style="rounded=1;whiteSpace=wrap;html=1;fillColor=#dae8fc;strokeColor=none;align=left;" vertex="1" parent="Ln_kKYinRdLxvM4SbcaW-46">
          <mxGeometry x="30" width="190" height="60" as="geometry" />
        </mxCell>
        <mxCell id="Ln_kKYinRdLxvM4SbcaW-48" value="" style="shape=image;verticalLabelPosition=bottom;labelBackgroundColor=default;verticalAlign=top;aspect=fixed;imageAspect=0;image=https://github.com/kubernetes/community/raw/master/icons/png/infrastructure_components/labeled/etcd-128.png;" vertex="1" parent="Ln_kKYinRdLxvM4SbcaW-46">
          <mxGeometry x="168.00458333333336" y="5.580000000000032" width="49.99999999999995" height="48.82999999999995" as="geometry" />
        </mxCell>
        <mxCell id="Ln_kKYinRdLxvM4SbcaW-49" value="&lt;b&gt;&lt;font style=&quot;font-size: 14px;&quot;&gt;Control Plane&lt;/font&gt;&lt;/b&gt;" style="text;html=1;align=center;verticalAlign=middle;whiteSpace=wrap;rounded=0;" vertex="1" parent="1">
          <mxGeometry x="90" y="280" width="100" height="30" as="geometry" />
        </mxCell>
        <mxCell id="Ln_kKYinRdLxvM4SbcaW-50" value="&lt;span style=&quot;font-size: 14px;&quot;&gt;&lt;b&gt;Node 1&lt;/b&gt;&lt;/span&gt;" style="text;html=1;align=center;verticalAlign=middle;whiteSpace=wrap;rounded=0;" vertex="1" parent="1">
          <mxGeometry x="440" y="425.58" width="70" height="30" as="geometry" />
        </mxCell>
        <mxCell id="Ln_kKYinRdLxvM4SbcaW-51" value="&lt;span style=&quot;font-size: 14px;&quot;&gt;&lt;b&gt;Node 2&lt;/b&gt;&lt;/span&gt;" style="text;html=1;align=center;verticalAlign=middle;whiteSpace=wrap;rounded=0;" vertex="1" parent="1">
          <mxGeometry x="735" y="425.58" width="70" height="30" as="geometry" />
        </mxCell>
        <mxCell id="Ln_kKYinRdLxvM4SbcaW-53" value="" style="rounded=1;whiteSpace=wrap;html=1;" vertex="1" parent="1">
          <mxGeometry x="360" y="574" width="230" height="106" as="geometry" />
        </mxCell>
        <mxCell id="Ln_kKYinRdLxvM4SbcaW-63" style="edgeStyle=orthogonalEdgeStyle;rounded=0;orthogonalLoop=1;jettySize=auto;html=1;entryX=0.5;entryY=0;entryDx=0;entryDy=0;" edge="1" parent="1" source="Ln_kKYinRdLxvM4SbcaW-15" target="Ln_kKYinRdLxvM4SbcaW-53">
          <mxGeometry relative="1" as="geometry" />
        </mxCell>
        <mxCell id="Ln_kKYinRdLxvM4SbcaW-64" style="edgeStyle=orthogonalEdgeStyle;rounded=0;orthogonalLoop=1;jettySize=auto;html=1;" edge="1" parent="1" source="Ln_kKYinRdLxvM4SbcaW-11" target="Ln_kKYinRdLxvM4SbcaW-53">
          <mxGeometry relative="1" as="geometry" />
        </mxCell>
        <mxCell id="Ln_kKYinRdLxvM4SbcaW-65" value="" style="shape=image;verticalLabelPosition=bottom;labelBackgroundColor=default;verticalAlign=top;aspect=fixed;imageAspect=0;image=https://github.com/kubernetes/community/blob/master/icons/png/resources/labeled/pod-128.png?raw=true;" vertex="1" parent="1">
          <mxGeometry x="450" y="611.17" width="50" height="48.83" as="geometry" />
        </mxCell>
        <mxCell id="Ln_kKYinRdLxvM4SbcaW-66" value="" style="shape=image;verticalLabelPosition=bottom;labelBackgroundColor=default;verticalAlign=top;aspect=fixed;imageAspect=0;image=https://github.com/kubernetes/community/blob/master/icons/png/resources/labeled/pod-128.png?raw=true;" vertex="1" parent="1">
          <mxGeometry x="380" y="585" width="50" height="48.83" as="geometry" />
        </mxCell>
        <mxCell id="Ln_kKYinRdLxvM4SbcaW-67" value="" style="shape=image;verticalLabelPosition=bottom;labelBackgroundColor=default;verticalAlign=top;aspect=fixed;imageAspect=0;image=https://github.com/kubernetes/community/blob/master/icons/png/resources/labeled/pod-128.png?raw=true;" vertex="1" parent="1">
          <mxGeometry x="530" y="585" width="50" height="48.83" as="geometry" />
        </mxCell>
        <mxCell id="Ln_kKYinRdLxvM4SbcaW-75" value="" style="rounded=1;whiteSpace=wrap;html=1;" vertex="1" parent="1">
          <mxGeometry x="655" y="574" width="230" height="106" as="geometry" />
        </mxCell>
        <mxCell id="Ln_kKYinRdLxvM4SbcaW-72" value="" style="shape=image;verticalLabelPosition=bottom;labelBackgroundColor=default;verticalAlign=top;aspect=fixed;imageAspect=0;image=https://static-00.iconduck.com/assets.00/kubernetes-icon-2048x1995-r1q3f8n7.png;" vertex="1" parent="1">
          <mxGeometry x="840" y="250" width="50" height="48.71" as="geometry" />
        </mxCell>
        <mxCell id="Ln_kKYinRdLxvM4SbcaW-73" value="" style="group" vertex="1" connectable="0" parent="1">
          <mxGeometry x="774" y="480" width="120" height="60" as="geometry" />
        </mxCell>
        <mxCell id="Ln_kKYinRdLxvM4SbcaW-28" value="&amp;nbsp;kube-proxy" style="rounded=1;whiteSpace=wrap;html=1;fillColor=#d5e8d4;strokeColor=#82b366;align=left;" vertex="1" parent="Ln_kKYinRdLxvM4SbcaW-73">
          <mxGeometry width="120" height="60" as="geometry" />
        </mxCell>
        <mxCell id="Ln_kKYinRdLxvM4SbcaW-29" value="" style="shape=image;verticalLabelPosition=bottom;labelBackgroundColor=default;verticalAlign=top;aspect=fixed;imageAspect=0;image=https://github.com/kubernetes/community/blob/master/icons/png/control_plane_components/labeled/kubelet-128.png?raw=true;" vertex="1" parent="Ln_kKYinRdLxvM4SbcaW-73">
          <mxGeometry x="68" y="5.589999999999975" width="50" height="48.83" as="geometry" />
        </mxCell>
        <mxCell id="Ln_kKYinRdLxvM4SbcaW-74" value="" style="group" vertex="1" connectable="0" parent="1">
          <mxGeometry x="480" y="480" width="120" height="60" as="geometry" />
        </mxCell>
        <mxCell id="Ln_kKYinRdLxvM4SbcaW-15" value="&amp;nbsp;kube-proxy" style="rounded=1;whiteSpace=wrap;html=1;fillColor=#d5e8d4;strokeColor=#82b366;align=left;" vertex="1" parent="Ln_kKYinRdLxvM4SbcaW-74">
          <mxGeometry width="120" height="60" as="geometry" />
        </mxCell>
        <mxCell id="Ln_kKYinRdLxvM4SbcaW-16" value="" style="shape=image;verticalLabelPosition=bottom;labelBackgroundColor=default;verticalAlign=top;aspect=fixed;imageAspect=0;image=https://github.com/kubernetes/community/blob/master/icons/png/control_plane_components/labeled/kubelet-128.png?raw=true;" vertex="1" parent="Ln_kKYinRdLxvM4SbcaW-74">
          <mxGeometry x="68" y="5.589999999999975" width="50" height="48.83" as="geometry" />
        </mxCell>
        <mxCell id="Ln_kKYinRdLxvM4SbcaW-68" value="" style="shape=image;verticalLabelPosition=bottom;labelBackgroundColor=default;verticalAlign=top;aspect=fixed;imageAspect=0;image=https://github.com/kubernetes/community/blob/master/icons/png/resources/labeled/pod-128.png?raw=true;" vertex="1" parent="1">
          <mxGeometry x="745" y="611.1700000000001" width="50" height="48.83" as="geometry" />
        </mxCell>
        <mxCell id="Ln_kKYinRdLxvM4SbcaW-76" value="" style="shape=image;verticalLabelPosition=bottom;labelBackgroundColor=default;verticalAlign=top;aspect=fixed;imageAspect=0;image=https://github.com/kubernetes/community/blob/master/icons/png/resources/labeled/pod-128.png?raw=true;" vertex="1" parent="1">
          <mxGeometry x="670" y="585.0000000000001" width="50" height="48.83" as="geometry" />
        </mxCell>
        <mxCell id="Ln_kKYinRdLxvM4SbcaW-79" style="edgeStyle=orthogonalEdgeStyle;rounded=0;orthogonalLoop=1;jettySize=auto;html=1;entryX=0.5;entryY=0;entryDx=0;entryDy=0;" edge="1" parent="1" source="Ln_kKYinRdLxvM4SbcaW-31" target="Ln_kKYinRdLxvM4SbcaW-75">
          <mxGeometry relative="1" as="geometry" />
        </mxCell>
        <mxCell id="Ln_kKYinRdLxvM4SbcaW-80" style="edgeStyle=orthogonalEdgeStyle;rounded=0;orthogonalLoop=1;jettySize=auto;html=1;entryX=0.5;entryY=0;entryDx=0;entryDy=0;" edge="1" parent="1" source="Ln_kKYinRdLxvM4SbcaW-28" target="Ln_kKYinRdLxvM4SbcaW-75">
          <mxGeometry relative="1" as="geometry" />
        </mxCell>
        <mxCell id="Ln_kKYinRdLxvM4SbcaW-81" style="edgeStyle=orthogonalEdgeStyle;rounded=0;orthogonalLoop=1;jettySize=auto;html=1;entryX=0.5;entryY=1;entryDx=0;entryDy=0;" edge="1" parent="1" source="Ln_kKYinRdLxvM4SbcaW-47" target="Ln_kKYinRdLxvM4SbcaW-38">
          <mxGeometry relative="1" as="geometry">
            <Array as="points">
              <mxPoint x="213" y="540" />
              <mxPoint x="195" y="540" />
            </Array>
          </mxGeometry>
        </mxCell>
        <mxCell id="Ln_kKYinRdLxvM4SbcaW-82" style="edgeStyle=orthogonalEdgeStyle;rounded=0;orthogonalLoop=1;jettySize=auto;html=1;entryX=0.25;entryY=1;entryDx=0;entryDy=0;" edge="1" parent="1" source="Ln_kKYinRdLxvM4SbcaW-42" target="Ln_kKYinRdLxvM4SbcaW-38">
          <mxGeometry relative="1" as="geometry">
            <Array as="points">
              <mxPoint x="32" y="540" />
              <mxPoint x="158" y="540" />
            </Array>
          </mxGeometry>
        </mxCell>
        <mxCell id="Ln_kKYinRdLxvM4SbcaW-83" style="edgeStyle=orthogonalEdgeStyle;rounded=0;orthogonalLoop=1;jettySize=auto;html=1;entryX=0;entryY=0.5;entryDx=0;entryDy=0;" edge="1" parent="1" source="Ln_kKYinRdLxvM4SbcaW-33" target="Ln_kKYinRdLxvM4SbcaW-38">
          <mxGeometry relative="1" as="geometry" />
        </mxCell>
        <mxCell id="Ln_kKYinRdLxvM4SbcaW-84" style="edgeStyle=orthogonalEdgeStyle;rounded=0;orthogonalLoop=1;jettySize=auto;html=1;entryX=1;entryY=0.5;entryDx=0;entryDy=0;" edge="1" parent="1" source="Ln_kKYinRdLxvM4SbcaW-11" target="Ln_kKYinRdLxvM4SbcaW-39">
          <mxGeometry relative="1" as="geometry">
            <Array as="points">
              <mxPoint x="410" y="450" />
            </Array>
          </mxGeometry>
        </mxCell>
        <mxCell id="Ln_kKYinRdLxvM4SbcaW-85" style="edgeStyle=orthogonalEdgeStyle;rounded=0;orthogonalLoop=1;jettySize=auto;html=1;entryX=1;entryY=0.5;entryDx=0;entryDy=0;dashed=1;" edge="1" parent="1" source="Ln_kKYinRdLxvM4SbcaW-15" target="Ln_kKYinRdLxvM4SbcaW-38">
          <mxGeometry relative="1" as="geometry">
            <Array as="points">
              <mxPoint x="540" y="450" />
            </Array>
          </mxGeometry>
        </mxCell>
        <mxCell id="Ln_kKYinRdLxvM4SbcaW-86" style="edgeStyle=orthogonalEdgeStyle;rounded=0;orthogonalLoop=1;jettySize=auto;html=1;entryX=0.75;entryY=0;entryDx=0;entryDy=0;" edge="1" parent="1" source="Ln_kKYinRdLxvM4SbcaW-31" target="Ln_kKYinRdLxvM4SbcaW-38">
          <mxGeometry relative="1" as="geometry">
            <Array as="points">
              <mxPoint x="706" y="400" />
              <mxPoint x="232" y="400" />
              <mxPoint x="232" y="420" />
            </Array>
          </mxGeometry>
        </mxCell>
        <mxCell id="Ln_kKYinRdLxvM4SbcaW-87" style="edgeStyle=orthogonalEdgeStyle;rounded=0;orthogonalLoop=1;jettySize=auto;html=1;entryX=0.75;entryY=0;entryDx=0;entryDy=0;dashed=1;" edge="1" parent="1" source="Ln_kKYinRdLxvM4SbcaW-28" target="Ln_kKYinRdLxvM4SbcaW-38">
          <mxGeometry relative="1" as="geometry">
            <Array as="points">
              <mxPoint x="834" y="400" />
              <mxPoint x="232" y="400" />
            </Array>
          </mxGeometry>
        </mxCell>
        <mxCell id="Ln_kKYinRdLxvM4SbcaW-88" value="&lt;b&gt;&lt;font color=&quot;#ffffff&quot;&gt;CRI&lt;/font&gt;&lt;/b&gt;" style="rounded=1;whiteSpace=wrap;html=1;fillColor=#0050ef;strokeColor=#001DBC;fontColor=#ffffff;" vertex="1" parent="1">
          <mxGeometry x="840" y="650" width="36" height="20" as="geometry" />
        </mxCell>
        <mxCell id="Ln_kKYinRdLxvM4SbcaW-89" value="&lt;b&gt;&lt;font color=&quot;#ffffff&quot;&gt;CRI&lt;/font&gt;&lt;/b&gt;" style="rounded=1;whiteSpace=wrap;html=1;fillColor=#0050ef;strokeColor=#001DBC;fontColor=#ffffff;" vertex="1" parent="1">
          <mxGeometry x="544" y="650" width="36" height="20" as="geometry" />
        </mxCell>
      </root>
    </mxGraphModel>
  </diagram>
</mxfile>
